<svg xmlns="http://www.w3.org/2000/svg" viewBox="0 0 32 32" fill="none">
  <rect width="32" height="32" rx="6" fill="#2563eb"/>
  <path d="M8 22V10h4.5c1.2 0 2.1.3 2.8.9.7.6 1 1.4 1 2.4 0 .7-.2 1.3-.5 1.8-.4.5-.9.8-1.5 1v.1c.8.1 1.4.5 1.9 1 .5.6.7 1.3.7 2.1 0 1.1-.4 2-1.1 2.6-.8.7-1.8 1-3 1H8zm2.4-7.1h2.2c.6 0 1.1-.2 1.4-.5.4-.3.5-.8.5-1.3 0-.6-.2-1-.5-1.3-.4-.3-.8-.5-1.4-.5h-2.2v3.6zm0 5.2h2.5c.7 0 1.2-.2 1.6-.5.4-.4.6-.9.6-1.5s-.2-1.1-.6-1.4c-.4-.4-1-.5-1.6-.5h-2.5v3.9zM20.5 22.2c-.7 0-1.2-.2-1.7-.7-.4-.5-.6-1-.6-1.8 0-1 .4-1.7 1.1-2.2.7-.5 1.8-.8 3.1-.9v-.5c0-.9-.5-1.4-1.4-1.4-.7 0-1.4.3-2 .8l-.8-1.2c.9-.7 1.9-1.1 3-1.1 1 0 1.8.3 2.3.8.6.5.8 1.3.8 2.3V22h-2l-.1-.8c-.5.6-1.1.9-1.7 1zm.6-1.7c.5 0 .9-.2 1.3-.6v-1.8c-1.6.2-2.4.7-2.4 1.5 0 .3.1.5.3.7.2.1.5.2.8.2z" fill="white"/>
</svg>
